<svg xmlns="http://www.w3.org/2000/svg" width="22.204" height="22.199" viewBox="0 0 22.204 22.199"><g transform="translate(0 -0.041)"><g transform="translate(0 0.041)"><g transform="translate(0)"><path d="M19.7,2.538a8.5,8.5,0,0,0-12.328,11.7l-.649.649a1.343,1.343,0,0,0-1.9,0h0L.394,19.314a1.343,1.343,0,0,0,0,1.9h0l.633.633a1.343,1.343,0,0,0,1.9,0l4.432-4.432a1.343,1.343,0,0,0,0-1.9h0l.649-.649A8.5,8.5,0,0,0,19.7,2.538ZM6.724,16.782,2.293,21.213a.448.448,0,0,1-.633,0l-.633-.633a.448.448,0,0,1,0-.633l4.432-4.432a.458.458,0,0,1,.633,0l.633.633A.448.448,0,0,1,6.724,16.782Zm12.345-2.848a7.61,7.61,0,1,1,0-10.762A7.61,7.61,0,0,1,19.069,13.933Z" transform="translate(0 -0.041)" fill="#989393"/></g></g><g transform="translate(17.803 3.804)"><path d="M318.8,67.3h0l-.633.633a5.826,5.826,0,0,1,0,8.23l.633.633A6.721,6.721,0,0,0,318.8,67.3Z" transform="translate(-318.167 -67.303)" fill="#989393"/></g></g></svg>